<svg fill="currentColor" viewBox="0 0 24 24" width="24" height="24" color="currentColor" xmlns="http://www.w3.org/2000/svg"><path d="M5.98 19.97c.29.22.69.27 1.02.11 3.04-1.41 6.95-1.41 10 0a1 1 0 0 0 1.02-.11C20.55 18.06 22 15.15 22 12c0-3.67-1.99-6.88-4.95-8.62-.02-.01-.03-.03-.05-.04-.02 0-.03 0-.05-.02A9.9 9.9 0 0 0 12 2c-1.8 0-3.49.49-4.95 1.32-.02 0-.03 0-.05.02-.02.01-.03.03-.05.04C3.99 5.12 2 8.33 2 12c0 3.15 1.45 6.06 3.98 7.97M5 11h-.93a7.98 7.98 0 0 1 3.1-5.36l.46.8c.19.32.52.5.87.5.17 0 .34-.04.5-.13.48-.28.64-.89.37-1.37l-.47-.81c.95-.4 2-.63 3.1-.63s2.15.22 3.1.63l-.47.81a1.002 1.002 0 0 0 .87 1.5c.35 0 .68-.18.87-.5l.46-.8a7.98 7.98 0 0 1 3.1 5.36H19c-.55 0-1 .45-1 1s.45 1 1 1h.93a7.9 7.9 0 0 1-2.67 5.01A14 14 0 0 0 12 17c-1.82 0-3.62.35-5.26 1.01A7.9 7.9 0 0 1 4.07 13H5c.55 0 1-.45 1-1s-.45-1-1-1"></path><path d="M12 14c1.1 0 2-.9 2-2 0-.88-1.28-4.06-1.54-4.69-.15-.38-.77-.38-.93 0-.26.63-1.54 3.81-1.54 4.69 0 1.1.9 2 2 2z"></path></svg>