<svg viewBox="0 0 24 24" fill="currentColor" width="24" height="24" color="currentColor" xmlns="http://www.w3.org/2000/svg"><path d="M8 6a1 1 0 0 0 0 2h4a1 1 0 1 0 0-2H8zM7 10a1 1 0 0 1 1-1h4a1 1 0 1 1 0 2H8a1 1 0 0 1-1-1zM8 12a1 1 0 1 0 0 2h2a1 1 0 1 0 0-2H8z"></path><path fill-rule="evenodd" clip-rule="evenodd" d="M3 16v-1H2a1 1 0 1 1 0-2h1v-2H2a1 1 0 1 1 0-2h1V7H2a1 1 0 0 1 0-2h1V4a3 3 0 0 1 3-3h8a3 3 0 0 1 3 3v12a3 3 0 0 1-3 3H6a3 3 0 0 1-3-3zM6 3h8a1 1 0 0 1 1 1v12a1 1 0 0 1-1 1H6a1 1 0 0 1-1-1V4a1 1 0 0 1 1-1z"></path><path d="M21 8a1 1 0 1 0-2 0v9a4 4 0 0 1-4 4H8a1 1 0 1 0 0 2h7a6 6 0 0 0 6-6V8z"></path></svg>