<svg viewBox="0 0 24 24" fill="currentColor" width="24" height="24" color="currentColor" xmlns="http://www.w3.org/2000/svg"><path fill-rule="evenodd" clip-rule="evenodd" d="M5 12.932v2.535a2.5 2.5 0 0 0 5 0v-2.44a3 3 0 0 1 1.339.65l.567.48a6.53 6.53 0 0 1 1.272-1.543l-.547-.464A5 5 0 0 0 10 11.003V7.931a5 5 0 0 0 2.63-1.147l3.039-2.57c.18 1.383.331 3.165.331 5.253 0 .586-.012 1.148-.033 1.684a6.512 6.512 0 0 1 2.007-.165c.017-.487.026-.994.026-1.519 0-2.415-.193-4.445-.41-5.962-.204-1.438-1.845-1.975-2.954-1.037l-3.297 2.79a3 3 0 0 1-1.938.71H5.5a3.5 3.5 0 0 0-.5 6.964zm3-4.965H5.5a1.5 1.5 0 1 0 0 3H8v-3zm-1 5h1v2.5a.5.5 0 1 1-1 0v-2.5zM16.674 13.332a.446.446 0 0 1 .438-.363h.96c.215 0 .4.152.44.363l.244 1.299c.223.091.431.207.624.345l1.203-.456c.199-.076.422.002.532.186l.506.846c.11.184.075.421-.082.567l-.92.849a3.087 3.087 0 0 1 .001 1.002l.919.849a.455.455 0 0 1 .082.566l-.506.847a.438.438 0 0 1-.532.186l-1.2-.456c-.193.14-.403.257-.627.348l-.244 1.295a.446.446 0 0 1-.439.364h-.96a.446.446 0 0 1-.439-.364l-.244-1.294a3.062 3.062 0 0 1-.63-.35l-1.198.455a.437.437 0 0 1-.532-.186l-.506-.847a.455.455 0 0 1 .082-.566l.918-.849a3.094 3.094 0 0 1 .001-1l-.919-.85a.455.455 0 0 1-.082-.566l.506-.846a.437.437 0 0 1 .532-.186l1.203.457c.192-.139.401-.255.624-.346l.245-1.299zm2.146 4.137a1.227 1.227 0 1 1-2.455 0 1.227 1.227 0 0 1 2.455 0z"></path></svg>