<svg viewBox="0 0 20 20" fill="currentColor" width="20" height="20" color="currentColor" xmlns="http://www.w3.org/2000/svg"><path d="M17.407 3.037H2.592a.929.929 0 0 0-.925.926c0 .51.416.926.925.926h14.815c.51 0 .926-.417.926-.926a.929.929 0 0 0-.926-.926zM17.407 9.074H2.592a.929.929 0 0 0-.925.926c0 .51.416.926.925.926h14.815c.51 0 .926-.417.926-.926a.929.929 0 0 0-.926-.926zM17.407 14.963H2.592a.929.929 0 0 0-.925.926c0 .509.416.926.925.926h14.815c.51 0 .926-.417.926-.926a.929.929 0 0 0-.926-.926z"></path></svg>