<svg viewBox="0 0 24 24" fill="currentColor" width="24" height="24" color="currentColor" xmlns="http://www.w3.org/2000/svg"><g clip-path="url(#_r_0_)" fill-rule="evenodd" clip-rule="evenodd"><path d="M7 9a2 2 0 1 1-4 0 2 2 0 0 1 4 0zm-1.339 5.989C5.456 14.996 5.236 15 5 15c-.863 0-1.517-.053-1.996-.12.02-.322.126-.429.22-.501C3.407 14.237 3.906 14 5 14c.383 0 .694.03.943.073a5.336 5.336 0 0 1 1.141-1.764C6.516 12.107 5.821 12 5 12c-2.667 0-4 1.125-4 3v.268c0 .707.392 1.34 1.085 1.483.631.13 1.573.249 2.915.249.173 0 .34-.002.5-.006V16.5c0-.516.052-1.023.161-1.511zM19 17c1.342 0 2.284-.118 2.915-.249.693-.143 1.085-.776 1.085-1.483V15c0-1.875-1.333-3-4-3-.578 0-1.093.053-1.545.155a5.865 5.865 0 0 1 1.115 1.858c.132-.008.275-.013.43-.013 1.094 0 1.593.237 1.776.379.094.072.2.179.22.501a14.64 14.64 0 0 1-2.144.12c.1.489.148.992.148 1.5v.5zm2-8a2 2 0 1 1-4 0 2 2 0 0 1 4 0zM13 8a1 1 0 1 1-2 0 1 1 0 0 1 2 0zm2 0a3 3 0 1 1-6 0 3 3 0 0 1 6 0zm0 8.5v.245c-.633.13-1.603.255-3 .255s-2.368-.124-3-.255V16.5c0-.884.27-1.443.632-1.789C10 14.36 10.703 14 12 14s2 .36 2.368.711c.361.346.632.905.632 1.789zm2 .598V16.5c0-2.625-1.667-4.5-5-4.5s-5 1.875-5 4.5v.598c0 .672.352 1.284.999 1.463.773.215 2.048.439 4.001.439 1.953 0 3.228-.224 4.001-.439.647-.18.999-.791.999-1.463z"></path></g><defs><clipPath id="_r_0_"><path d="M0 0H24V24H0z"></path></clipPath></defs></svg>