<svg viewBox="0 0 24 24" fill="currentColor" width="24" height="24" color="currentColor" xmlns="http://www.w3.org/2000/svg"><path d="M6 14a1 1 0 1 0 0 2h4a1 1 0 1 0 0-2H6z"></path><path fill-rule="evenodd" clip-rule="evenodd" d="M4.195 4c-1.258 0-2.372.791-2.625 2.024C1.29 7.401 1 9.438 1 12s.289 4.599.57 5.976C1.823 19.209 2.937 20 4.195 20h15.61c1.258 0 2.372-.791 2.625-2.024.281-1.377.57-3.414.57-5.976s-.289-4.599-.57-5.976C22.177 4.791 21.063 4 19.805 4H4.195zm15.61 2H4.195a.811.811 0 0 0-.487.147.444.444 0 0 0-.178.278A24.26 24.26 0 0 0 3.263 8h17.474a24.192 24.192 0 0 0-.267-1.575.444.444 0 0 0-.178-.278.81.81 0 0 0-.487-.147zM3 12c0-.712.024-1.38.064-2h17.872c.04.62.064 1.288.064 2 0 2.412-.272 4.314-.53 5.575a.444.444 0 0 1-.178.278.81.81 0 0 1-.487.147H4.195a.81.81 0 0 1-.487-.147.444.444 0 0 1-.178-.278C3.272 16.314 3 14.412 3 12z"></path></svg>