<svg viewBox="0 0 48 48" width="1em" height="1em" fill="currentColor" class="x1qsmy5i xxk0z11 xvy4d1p" xmlns="http://www.w3.org/2000/svg"><path d="M40.5 10H23.74c-1.08 0-2.03-.69-2.37-1.71s-.18-.53-.18-.53A5.496 5.496 0 0 0 15.97 4H6.5C4.02 4 2 6.02 2 8.5v30C2 41.53 4.47 44 7.5 44h33c3.03 0 5.5-2.47 5.5-5.5v-23c0-3.03-2.47-5.5-5.5-5.5zm-9.83 23.73c-.2.18-.46.27-.72.27-.17 0-.35-.04-.51-.13L24 30.98l-5.44 2.89c-.4.21-.89.15-1.23-.14a.98.98 0 0 1-.23-1.16l5.95-12c.17-.35.54-.57.95-.57s.77.22.95.57l5.95 12c.19.39.1.86-.23 1.16z"></path></svg>