<svg viewBox="0 0 16 16" fill="currentColor" width="16" height="16" color="currentColor" xmlns="http://www.w3.org/2000/svg"><g clip-path="url(#_r_1n_)"><g clip-path="url(#_r_1o_)"><path d="M8.143.523c-4.198 0-7.62 3.421-7.62 7.62 0 4.198 3.422 7.618 7.62 7.618s7.619-3.42 7.619-7.619c0-4.198-3.42-7.619-7.619-7.619zm0 13.715a6.103 6.103 0 0 1-6.095-6.096 6.103 6.103 0 0 1 6.095-6.095 6.103 6.103 0 0 1 6.095 6.095 6.103 6.103 0 0 1-6.095 6.096z"></path><path d="M8.905 7.831V4.334a.764.764 0 0 0-.762-.762.764.764 0 0 0-.762.762v3.81c0 .205.084.396.22.54l2.287 2.286c.152.153.342.221.54.221a.759.759 0 0 0 .54-1.295L8.906 7.831z"></path></g></g><defs><clipPath id="_r_1n_"><path d="M0 0H16V16H0z"></path></clipPath><clipPath id="_r_1o_"><path d="M0 0H16V16H0z"></path></clipPath></defs></svg>