<svg viewBox="0 0 16 16" fill="currentColor" width="16" height="16" color="currentColor" xmlns="http://www.w3.org/2000/svg"><g clip-path="url(#_r_7_)"><path d="M1.285 9.666a.764.764 0 0 0-.762.762c0 .42.343.762.762.762h.762c.046 0 .084-.015.13-.03a2.28 2.28 0 0 0 2.156 1.554h5.333a2.292 2.292 0 0 0 2.286-2.286V2.81A2.292 2.292 0 0 0 9.666.523H4.333c-.998 0-1.844.656-2.156 1.555-.046-.008-.084-.03-.13-.03h-.762a.764.764 0 0 0-.762.761c0 .42.343.762.762.762h.762v2.286h-.762a.764.764 0 0 0-.762.762c0 .419.343.762.762.762h.762v2.285h-.762zm3.81-6.857h3.81c.418 0 .761.343.761.762a.764.764 0 0 1-.762.762h-3.81a.764.764 0 0 1-.761-.762c0-.419.343-.762.762-.762zm0 3.048h3.81c.418 0 .761.343.761.762a.764.764 0 0 1-.762.762h-3.81a.764.764 0 0 1-.761-.762c0-.42.343-.762.762-.762zm0 3.047h3.047c.42 0 .762.343.762.762a.764.764 0 0 1-.762.762H5.095a.764.764 0 0 1-.762-.762c0-.419.343-.762.762-.762z"></path><path d="M5.857 14.238a.764.764 0 0 0-.762.762c0 .419.343.761.762.761h4.571A4.575 4.575 0 0 0 15 11.191V5.856a.764.764 0 0 0-.762-.762.764.764 0 0 0-.762.762v5.333a3.047 3.047 0 0 1-3.048 3.048H5.857z"></path></g><defs><clipPath id="_r_7_"><path d="M0 0H16V16H0z"></path></clipPath></defs></svg>