<svg viewBox="0 0 16 16" fill="currentColor" width="16" height="16" color="currentColor" xmlns="http://www.w3.org/2000/svg"><g clip-path="url(#_r_1j_)"><path d="M14.33 3.579a48.52 48.52 0 0 0-3.14-.29v-.48A2.292 2.292 0 0 0 8.905.523H7.38A2.292 2.292 0 0 0 5.095 2.81v.48c-1.051.061-2.095.16-3.139.29a.763.763 0 1 0 .19 1.516c.222-.03.443-.046.671-.076v7.931a2.669 2.669 0 0 0 2.392 2.66c.976.098 1.959.152 2.941.152.983 0 1.966-.054 2.941-.153a2.669 2.669 0 0 0 2.393-2.659V5.02c.22.023.442.045.67.076h.1c.38 0 .708-.282.754-.67a.763.763 0 0 0-.663-.854l-.016.008zm-6.95 8.373c0 .42-.342.762-.761.762a.764.764 0 0 1-.762-.762V7.381c0-.42.343-.762.762-.762s.762.343.762.762v4.571zM6.62 3.213v-.404c0-.419.343-.762.762-.762h1.524c.419 0 .762.343.762.762v.404a50.799 50.799 0 0 0-3.048 0zm3.81 8.739c0 .42-.343.762-.762.762a.764.764 0 0 1-.762-.762V7.381c0-.42.343-.762.762-.762s.761.343.761.762v4.571z"></path></g><defs><clipPath id="_r_1j_"><path d="M0 0H16V16H0z"></path></clipPath></defs></svg>