<svg viewBox="0 0 12 12" fill="currentColor" width="12" height="12" color="currentColor" xmlns="http://www.w3.org/2000/svg"><g clip-path="url(#_r_q_)"><g clip-path="url(#_r_r_)"><path d="M10.8 6.602a.6.6 0 0 1 .6.6v1.747c0 .997-.639 1.945-1.705 2.144-.838.156-2.072.309-3.695.309-1.623 0-2.857-.153-3.695-.31C1.24 10.895.6 9.947.6 8.95V7.202a.6.6 0 0 1 1.2 0v1.747c0 .509.31.887.725.964.767.143 1.928.288 3.475.288 1.547 0 2.708-.145 3.475-.288.414-.077.725-.455.725-.964V7.202a.6.6 0 0 1 .6-.6z"></path><path d="M5.576.777a.6.6 0 0 1 .848 0l1.8 1.8a.6.6 0 1 1-.848.849L6.6 2.65v4.552a.6.6 0 0 1-1.2 0V2.65l-.776.776a.6.6 0 0 1-.848-.849l1.8-1.8z"></path></g></g><defs><clipPath id="_r_q_"><path d="M0 0H12V12H0z"></path></clipPath><clipPath id="_r_r_"><path d="M0 0H12V12H0z"></path></clipPath></defs></svg>