<svg viewBox="0 0 16 16" fill="currentColor" width="16" height="16" color="currentColor" xmlns="http://www.w3.org/2000/svg"><g clip-path="url(#_r_8_)"><path d="M14.238 8.904c.42 0 .762.341.762.762v2.219c0 1.266-.811 2.47-2.165 2.722-1.064.199-2.631.392-4.692.392-2.061 0-3.628-.193-4.692-.392-1.354-.252-2.165-1.456-2.165-2.722V9.666a.762.762 0 0 1 1.523 0v2.219c0 .646.395 1.127.92 1.225.975.181 2.449.366 4.414.366 1.965 0 3.438-.185 4.413-.366.526-.098.92-.579.92-1.225V9.666c0-.42.341-.762.762-.762z"></path><path d="M8.143 1.285c.42 0 .762.341.762.762v5.78l.985-.985a.762.762 0 1 1 1.077 1.077l-2.286 2.286a.762.762 0 0 1-1.077 0L5.318 7.919a.762.762 0 1 1 1.078-1.077l.985.985v-5.78c0-.42.341-.762.762-.762z"></path></g><defs><clipPath id="_r_8_"><path d="M0 0H16V16H0z"></path></clipPath></defs></svg>