<svg viewBox="0 0 20 20" fill="currentColor" width="20" height="20" color="currentColor" xmlns="http://www.w3.org/2000/svg"><path d="M17.055 1.777a2.315 2.315 0 0 1 2.315 2.315v10.405c0 1.644-1.106 3.15-2.822 3.437-1.494.25-3.708.51-6.437.51-2.145 0-3.673-.161-4.74-.358-1.688-.311-2.848-1.573-3.344-3.07-.032-.097-.061-.196-.093-.297a8.32 8.32 0 0 1-.179-.556 13.08 13.08 0 0 1-.112-.423l-.033-.13-.008-.037-.002-.01-.001-.004v-.001l.007-.002a14.416 14.416 0 0 1-.282-1.469 37.89 37.89 0 0 1-.282-3.424c-.057-1.374.819-2.566 2.074-2.998.14-1.047.966-2.026 2.083-2.24l.413-.097a2.315 2.315 0 0 1 2.184-1.55h9.26zM7.796 3.63a.463.463 0 0 0-.463.463v9.828a2.774 2.774 0 0 1-1.365 2.39c.932.153 2.271.282 4.143.282 2.612 0 4.723-.25 6.132-.484.73-.123 1.275-.775 1.275-1.61V4.091a.464.464 0 0 0-.463-.463H7.796zM5.481 5.116c-.506.008-1.013.495-1.002 1.097l.174 4.796.016.456a.352.352 0 0 1-.088.24.345.345 0 0 1-.225.12.345.345 0 0 1-.243-.073.351.351 0 0 1-.134-.218l-.075-.45-.57-3.46c-.29.235-.457.59-.441.963.038.937.114 2.135.265 3.25.108.793.314 1.591.532 2.291.03.082.057.145.078.182.029.05.073.121.132.209.157.235.48.377.84.304a.922.922 0 0 0 .741-.903V5.116zm9.723 7.773a.926.926 0 0 1 0 1.851H9.648a.926.926 0 0 1 0-1.851h5.556zm0-2.778a.926.926 0 0 1 0 1.851H9.648a.926.926 0 1 1 0-1.851h5.556zm-4.63-5.093a1.852 1.852 0 1 1 0 3.704 1.852 1.852 0 0 1 0-3.704z"></path></svg>