<svg viewBox="0 0 16 16" fill="currentColor" width="16" height="16" color="currentColor" xmlns="http://www.w3.org/2000/svg"><g clip-path="url(#_r_p_)"><path d="m11.092 1.956-8.358 8.358c-.38.38-.663.815-.853 1.31-.785 2.02-.694 2.675-.29 3.079.183.182.42.304.815.304.473 0 1.166-.167 2.256-.594.495-.19.93-.48 1.31-.853l8.358-8.358a2.295 2.295 0 0 0 0-3.239 2.295 2.295 0 0 0-3.238 0v-.007zM4.898 12.47a2.218 2.218 0 0 1-.785.51c-.54.214-.945.336-1.219.412.069-.282.198-.678.411-1.219.115-.297.29-.556.511-.785l5.92-5.92 1.082 1.082-5.92 5.92zm8.358-8.35-1.364 1.363-1.082-1.081 1.364-1.364a.748.748 0 0 1 .541-.221c.198 0 .396.076.541.22a.768.768 0 0 1 0 1.083z"></path></g><defs><clipPath id="_r_p_"><path d="M0 0H16V16H0z"></path></clipPath></defs></svg>