<svg viewBox="0 0 24 24" fill="currentColor" width="24" height="24" color="currentColor" xmlns="http://www.w3.org/2000/svg"><path fill-rule="evenodd" clip-rule="evenodd" d="M13 12.917c.775-.13 1.5-.409 2.144-.806l2.193 2.507a3 3 0 1 0 1.461-1.367l-2.15-2.457a6 6 0 1 0-9.297 0L5.203 13.25a3 3 0 1 0 1.461 1.367l2.193-2.507a5.962 5.962 0 0 0 2.144.806v4.254a3.001 3.001 0 1 0 2 0v-4.254zM12 11a4 4 0 1 0 0-8 4 4 0 0 0 0 8zm0 8a1 1 0 1 0 0 2 1 1 0 0 0 0-2zm-7-3a1 1 0 1 1-2 0 1 1 0 0 1 2 0zm15 1a1 1 0 1 0 0-2 1 1 0 0 0 0 2z"></path></svg>