<svg viewBox="0 0 16 16" fill="currentColor" width="16" height="16" color="currentColor" xmlns="http://www.w3.org/2000/svg"><path d="M10.47 6.02a.744.744 0 0 1-.153-.45V1.936a.764.764 0 0 0 .762-.762.764.764 0 0 0-.762-.762H5.746a.764.764 0 0 0-.762.762c0 .42.343.762.762.762V5.57c0 .16-.054.32-.153.45a57.066 57.066 0 0 0-4.106 6.194 2.3 2.3 0 0 0 0 2.301 2.231 2.231 0 0 0 1.958 1.135h9.166c.815 0 1.546-.427 1.958-1.135a2.263 2.263 0 0 0 0-2.301 57.072 57.072 0 0 0-4.107-6.194h.008zm-2.438 4.678a7.03 7.03 0 0 0-3.696-.229 52.149 52.149 0 0 1 2.461-3.52c.305-.404.465-.876.465-1.379V1.936h1.524V5.57c0 .503.16.975.465 1.38a52.546 52.546 0 0 1 2.72 3.93c-1.319.32-2.637.26-3.955-.175l.016-.007z"></path></svg>