<svg viewBox="0 0 16 16" fill="currentColor" width="16" height="16" color="currentColor" xmlns="http://www.w3.org/2000/svg"><g clip-path="url(#_r_9_)"><path d="M3.724 15h8.845c.892 0 1.677-.626 1.86-1.494.761-3.558.761-7.17 0-10.735a1.91 1.91 0 0 0-1.86-1.494H3.724c-.892 0-1.677.625-1.86 1.494a25.496 25.496 0 0 0 0 10.735 1.909 1.909 0 0 0 1.86 1.493zM3.35 3.09a.371.371 0 0 1 .374-.281h8.845a.38.38 0 0 1 .374.282c.716 3.352.716 6.75 0 10.095a.371.371 0 0 1-.374.282H3.724a.38.38 0 0 1-.374-.282 23.096 23.096 0 0 1-.32-1.905l2.065-2.065L6.46 10.58a.759.759 0 0 0 1.074 0l2.888-2.887v1.211c0 .42.343.762.762.762s.762-.343.762-.762V5.856a.777.777 0 0 0-.762-.762H8.135a.764.764 0 0 0-.762.762c0 .42.343.762.762.762h1.212L6.992 8.973 5.628 7.609a.759.759 0 0 0-1.074 0L2.84 9.323c-.1-2.08.06-4.16.503-6.225l.007-.007z"></path></g><defs><clipPath id="_r_9_"><path d="M0 0H16V16H0z"></path></clipPath></defs></svg>