<svg viewBox="0 0 16 16" fill="currentColor" width="16" height="16" color="currentColor" xmlns="http://www.w3.org/2000/svg"><g clip-path="url(#_r_12_)"><path d="M15.488 6.414a12.604 12.604 0 0 0-.137-.74 2.261 2.261 0 0 0-.922-1.393l-4.526-3.2a3.06 3.06 0 0 0-3.512 0l-4.526 3.2c-.48.335-.808.83-.922 1.394-.053.244-.091.495-.137.739a19.63 19.63 0 0 0 .282 7.909c.205.845.967 1.44 1.851 1.44h10.415c.884 0 1.646-.595 1.852-1.44.625-2.614.724-5.273.282-7.909zm-13.06-.442a.753.753 0 0 1 .305-.45l4.526-3.2a1.523 1.523 0 0 1 1.76 0l4.526 3.2c.16.115.267.275.305.45.015.076.03.152.038.221L9.012 9.629a1.523 1.523 0 0 1-1.76 0L2.375 6.193c.016-.076.023-.152.038-.22h.016zm11.292 7.992a.373.373 0 0 1-.373.275H2.932c-.176 0-.336-.115-.374-.275a18.185 18.185 0 0 1-.419-6.08l4.244 2.995a3.06 3.06 0 0 0 3.512 0l4.244-2.995a18.4 18.4 0 0 1-.419 6.08z"></path></g><defs><clipPath id="_r_12_"><path d="M0 0H16V16H0z"></path></clipPath></defs></svg>