<svg fill="currentColor" viewBox="0 0 24 24" width="24" height="24" color="currentColor" xmlns="http://www.w3.org/2000/svg"><path d="M15.613 18.759A3.636 3.636 0 0 1 11.999 22l-.187-.005a3.64 3.64 0 0 1-3.428-3.236q.979.108 2.077.159a1.634 1.634 0 0 0 3.075.001 32 32 0 0 0 2.077-.16"></path><path fill-rule="evenodd" d="M12.327 2.008a6.33 6.33 0 0 1 4.382 2.077 6.34 6.34 0 0 1 1.654 4.278v1.862a5.37 5.37 0 0 0 2.147 4.295c.684.513.565 1.518-.25 1.773l-.14.04-.023.01-.244.07-.36.102-.375.096q-.207.053-.427.107l-.223.052-.17.037-.21.045-.282.057-.169.032-.285.053-.276.047-.21.035q-.117.019-.236.036l-.332.05-.252.033-.245.032-.29.033-.344.038-.147.013q-.195.019-.392.036l-.449.033-.182.013q-.246.015-.499.026l-.138.007-.334.01q-.164.007-.33.011l-.697.007-.591-.005q-.601-.011-1.167-.043l-.225-.014-.32-.02-.203-.016a28 28 0 0 1-.745-.067l-.058-.006-.342-.039-.209-.024-.23-.03-.204-.027a28 28 0 0 1-.8-.124l-.118-.02q-.239-.042-.465-.087-.19-.036-.372-.073-.21-.044-.41-.09-.19-.041-.369-.083l-.323-.082-.266-.067-.079-.022-.086-.023-.26-.077-.255-.072-.026-.01-.136-.04c-.817-.255-.936-1.26-.251-1.773a5.37 5.37 0 0 0 2.137-3.98l.01-.315V8.363a6.4 6.4 0 0 1 .2-1.59q.158-.61.427-1.169A6.4 6.4 0 0 1 9.522 2.5a6.3 6.3 0 0 1 2.477-.5zM11.999 4a4.363 4.363 0 0 0-4.363 4.363v2.034a7.02 7.02 0 0 1-1.583 4.438 26.6 26.6 0 0 0 4.183.568q.238.013.483.02.618.029 1.28.031.677-.002 1.307-.031.232-.008.457-.02c1.659-.097 3.06-.32 4.182-.568a7.03 7.03 0 0 1-1.582-4.439V8.364a4.4 4.4 0 0 0-.051-.664 4.34 4.34 0 0 0-2.05-3.067A4.3 4.3 0 0 0 12 4" clip-rule="evenodd"></path></svg>
