<svg viewBox="0 0 16 16" fill="currentColor" width="16" height="16" color="currentColor" xmlns="http://www.w3.org/2000/svg"><g clip-path="url(#_r_a_)"><path d="M8.142 14.238a.764.764 0 0 0 .762-.762V8.905h4.571c.42 0 .762-.343.762-.762a.764.764 0 0 0-.762-.762H8.904V2.81a.764.764 0 0 0-.762-.762.764.764 0 0 0-.762.762V7.38H2.81a.764.764 0 0 0-.762.762c0 .42.343.762.762.762H7.38v4.571c0 .42.343.762.762.762z"></path></g><defs><clipPath id="_r_a_"><path d="M0 0H16V16H0z"></path></clipPath></defs></svg>