<svg viewBox="0 0 16 16" fill="currentColor" width="16" height="16" color="currentColor" xmlns="http://www.w3.org/2000/svg"><g clip-path="url(#_r_1i_)"><path d="M1.175 8.795a.764.764 0 0 0 .761-.762 6.103 6.103 0 0 1 6.096-6.095c1.508 0 2.918.548 4.023 1.524h-.976a.764.764 0 0 0-.762.762c0 .419.343.761.762.761h3.048a.764.764 0 0 0 .762-.761V1.176a.764.764 0 0 0-.762-.762.764.764 0 0 0-.762.762v1.425A7.565 7.565 0 0 0 8.032.414c-4.198 0-7.62 3.421-7.62 7.62 0 .418.343.761.763.761zM14.127 8.033a6.103 6.103 0 0 1-6.095 6.095 6.044 6.044 0 0 1-4.023-1.524h.975a.764.764 0 0 0 .762-.761.764.764 0 0 0-.762-.762H1.936a.764.764 0 0 0-.761.762v3.047c0 .42.342.762.761.762a.764.764 0 0 0 .762-.762v-1.425a7.565 7.565 0 0 0 5.334 2.187c4.198 0 7.619-3.42 7.619-7.619a.764.764 0 0 0-.762-.762.764.764 0 0 0-.762.762z"></path></g><defs><clipPath id="_r_1i_"><path d="M0 0H16V16H0z"></path></clipPath></defs></svg>