<svg viewBox="0 0 20 20" fill="currentColor" width="20" height="20" color="currentColor" xmlns="http://www.w3.org/2000/svg"><g clip-path="url(#_r_1h_)"><path fill-rule="evenodd" clip-rule="evenodd" d="M10.111 1.777a3.24 3.24 0 0 1 3.236 3.102c1.077.397 1.879 1.284 2.276 2.389.562-.178.97-.698.97-1.281V4.555a.926.926 0 0 1 1.852 0v1.432c0 1.52-1.082 2.765-2.478 3.105.04.342.073.686.1 1.019h1.452a.926.926 0 0 1 0 1.851h-1.397c-.01.34-.028.69-.052 1.046 1.346.375 2.374 1.596 2.375 3.079v1.431a.926.926 0 0 1-1.852 0v-1.431c0-.566-.383-1.07-.917-1.263-.874 2.175-3.078 3.62-5.565 3.62l-.287-.006c-2.373-.107-4.445-1.529-5.282-3.625-.53.18-.912.682-.912 1.274v1.431a.926.926 0 0 1-1.852 0v-1.431a3.2 3.2 0 0 1 2.373-3.09l-.024-.374c-.012-.224-.02-.444-.026-.66H2.704a.926.926 0 1 1 0-1.852h1.45c.026-.33.06-.67.1-1.01a3.198 3.198 0 0 1-2.472-2.95l-.004-.164V4.555a.926.926 0 0 1 1.852 0v1.432l.007.137c.056.55.442 1.002.957 1.154.397-1.11 1.2-2 2.28-2.398a3.24 3.24 0 0 1 3.237-3.103zm-.926 4.65c-.455.02-.867.05-1.236.09-.84.09-1.589.783-1.75 1.953-.128.938-.23 1.903-.25 2.669-.014.553.009 1.2.06 1.887.126 1.71 1.418 3.103 3.176 3.47V6.428zm1.852 10.07c1.758-.368 3.05-1.762 3.177-3.471.05-.688.074-1.335.06-1.887-.02-.766-.122-1.73-.251-2.67-.16-1.169-.91-1.863-1.75-1.953-.369-.039-.781-.07-1.236-.088v10.068zm-.926-12.868a1.39 1.39 0 0 0-1.323.963c.214-.012.437-.022.669-.028l.654-.009.655.01c.23.005.453.014.666.026a1.389 1.389 0 0 0-1.32-.962z"></path></g><defs><clipPath id="_r_1h_"><path d="M0 0H20V20H0z"></path></clipPath></defs></svg>