<svg viewBox="0 0 20 20" fill="currentColor" width="20" height="20" color="currentColor" xmlns="http://www.w3.org/2000/svg"><g clip-path="url(#_r_1g_)"><path d="M15.685 14.38a8.306 8.306 0 0 0 1.834-5.195c0-4.593-3.741-8.333-8.334-8.333C4.593.852.852 4.592.852 9.185c0 4.592 3.74 8.333 8.333 8.333a8.253 8.253 0 0 0 5.195-1.833l2.481 2.481a.91.91 0 0 0 .658.269.922.922 0 0 0 .657-1.574l-2.481-2.482h-.01zm-6.5 1.286a6.489 6.489 0 0 1-6.481-6.481 6.489 6.489 0 0 1 6.481-6.482 6.489 6.489 0 0 1 6.482 6.482 6.489 6.489 0 0 1-6.482 6.481z"></path></g><defs><clipPath id="_r_1g_"><path d="M0 0H20V20H0z"></path></clipPath></defs></svg>