<svg viewBox="0 0 20 20" fill="currentColor" width="20" height="20" color="currentColor" xmlns="http://www.w3.org/2000/svg"><g clip-path="url(#_r_1r_)"><path d="M2.787 9.01a7.45 7.45 0 0 0-.083 1.101c0 .361.028.732.083 1.102l-1.102 1.065a1.15 1.15 0 0 0-.194 1.407l1.204 2.093c.268.463.805.685 1.324.537l1.481-.426A7.189 7.189 0 0 0 7.407 17l.37 1.482c.13.518.593.88 1.121.88h2.417c.528 0 .99-.362 1.12-.88l.37-1.482a7.19 7.19 0 0 0 1.908-1.11l1.482.425a1.16 1.16 0 0 0 1.324-.537l1.213-2.093a1.14 1.14 0 0 0-.204-1.407l-1.102-1.065a7.444 7.444 0 0 0 0-2.204l1.102-1.064c.38-.37.463-.945.194-1.408L17.52 4.445a1.154 1.154 0 0 0-1.324-.537l-1.482.426a7.19 7.19 0 0 0-1.907-1.112l-.37-1.481a1.157 1.157 0 0 0-1.121-.88H8.898c-.528 0-.99.361-1.12.88l-.37 1.481A7.189 7.189 0 0 0 5.5 4.334L4.02 3.908a1.16 1.16 0 0 0-1.324.537L1.482 6.537a1.14 1.14 0 0 0 .203 1.408l1.102 1.064zm1.908 2.324a5.563 5.563 0 0 1-.14-1.223c0-.398.047-.814.14-1.222l.11-.51-1.444-1.397.667-1.158 1.935.556.38-.352a5.61 5.61 0 0 1 2.11-1.231l.5-.158.492-1.944h1.333l.49 1.944.5.158a5.49 5.49 0 0 1 2.112 1.231l.38.352 1.935-.556.666 1.158-1.444 1.398.11.51c.094.407.14.823.14 1.221 0 .398-.046.815-.14 1.223l-.11.509 1.444 1.398-.666 1.157-1.936-.555-.38.352a5.61 5.61 0 0 1-2.11 1.231l-.5.158-.491 1.944H9.445l-.491-1.944-.5-.158a5.49 5.49 0 0 1-2.111-1.231l-.38-.352-1.935.555-.667-1.157 1.445-1.398-.111-.51z"></path><path d="M10.111 13.815a3.703 3.703 0 0 0 3.704-3.704 3.703 3.703 0 0 0-3.704-3.703 3.703 3.703 0 0 0-3.704 3.703 3.703 3.703 0 0 0 3.704 3.704zm0-5.556c1.019 0 1.852.834 1.852 1.852a1.857 1.857 0 0 1-1.852 1.852 1.857 1.857 0 0 1-1.852-1.852c0-1.018.834-1.852 1.852-1.852z"></path></g><defs><clipPath id="_r_1r_"><path d="M0 0H20V20H0z"></path></clipPath></defs></svg>