<svg viewBox="0 0 16 16" fill="currentColor" width="16" height="16" color="currentColor" xmlns="http://www.w3.org/2000/svg"><g clip-path="url(#_r_21_)"><path d="M13.357 1.306a1.398 1.398 0 0 1 1.602 1.718c-.386 1.542-1.15 4.51-1.782 6.434-.673 2.045-1.502 3.946-2.178 5.39-.593 1.266-2.397 1.103-2.812-.19l-1.473-4.594a.762.762 0 0 0-.493-.492L1.627 8.098C.334 7.684.172 5.88 1.438 5.287c1.444-.676 3.344-1.506 5.39-2.178 1.924-.633 4.891-1.396 6.433-1.782l.096-.021zM11.98 3.228c-1.514.394-3.359.895-4.677 1.329-1.952.641-3.78 1.436-5.192 2.096L6.686 8.12c.1.031.195.07.287.114l5.007-5.007zM8.05 9.312c.045.093.083.188.115.287l1.467 4.575c.66-1.412 1.455-3.24 2.097-5.191.433-1.319.935-3.163 1.329-4.678L8.05 9.312z"></path></g><defs><clipPath id="_r_21_"><path d="M0 0H16V16H0z"></path></clipPath></defs></svg>