<svg viewBox="0 0 16 16" fill="currentColor" width="16" height="16" color="currentColor" xmlns="http://www.w3.org/2000/svg"><g clip-path="url(#_r_l_)"><path d="m1.826 6.4 1.745-1.745v7.306c0 .42.343.762.762.762a.764.764 0 0 0 .762-.762V4.655L6.84 6.399a.748.748 0 0 0 .54.221.759.759 0 0 0 .54-1.295L4.876 2.278a.759.759 0 0 0-1.074 0L.752 5.325A.759.759 0 1 0 1.826 6.4zM14.459 9.889l-1.745 1.745V4.327a.764.764 0 0 0-.762-.762.764.764 0 0 0-.762.762v7.307L9.445 9.889a.759.759 0 1 0-1.074 1.074l3.048 3.048c.152.152.343.22.54.22a.78.78 0 0 0 .542-.22l3.047-3.048a.759.759 0 1 0-1.074-1.074h-.015z"></path></g><defs><clipPath id="_r_l_"><path d="M0 0H16V16H0z"></path></clipPath></defs></svg>